<svg xmlns="http://www.w3.org/2000/svg" width="1200" height="300" viewBox="0 0 1200 300" role="img" aria-labelledby="title desc">
  <title id="title">Imron Reviady</title>
  <desc id="desc">Backend Engineering Manager. Go, APIs, distributed systems, and engineering leadership.</desc>
  <defs>
    <linearGradient id="background" x1="0" y1="0" x2="1" y2="1">
      <stop offset="0" stop-color="#1d2021"/>
      <stop offset="1" stop-color="#32302f"/>
    </linearGradient>
    <pattern id="dots" width="22" height="22" patternUnits="userSpaceOnUse">
      <circle cx="2" cy="2" r="1.4" fill="#665c54" opacity=".5"/>
    </pattern>
  </defs>
  <rect width="1200" height="300" rx="24" fill="url(#background)"/>
  <rect width="1200" height="300" rx="24" fill="url(#dots)" opacity=".4"/>
  <rect x="0" y="0" width="12" height="300" rx="6" fill="#fe8019"/>
  <circle cx="91" cy="58" r="6" fill="#fe8019"/>
  <circle cx="112" cy="58" r="6" fill="#fabd2f"/>
  <circle cx="133" cy="58" r="6" fill="#b8bb26"/>
  <text x="78" y="139" fill="#fbf1c7" font-family="Arial, Helvetica, sans-serif" font-size="67" font-weight="700" letter-spacing="-2">Imron Reviady</text>
  <text x="81" y="186" fill="#fabd2f" font-family="Arial, Helvetica, sans-serif" font-size="21" font-weight="700" letter-spacing="3">BACKEND ENGINEERING MANAGER</text>
  <text x="81" y="236" fill="#d5c4a1" font-family="Arial, Helvetica, sans-serif" font-size="23">Go  /  APIs  /  Distributed systems  /  Teams</text>
  <path d="M925 58 1055 114 963 179 1085 234" fill="none" stroke="#665c54" stroke-width="3"/>
  <path d="M1044 42 1120 79 1071 158 1149 213" fill="none" stroke="#665c54" stroke-width="3"/>
  <circle cx="925" cy="58" r="11" fill="#fe8019"/>
  <circle cx="1055" cy="114" r="13" fill="#fabd2f"/>
  <circle cx="963" cy="179" r="11" fill="#b8bb26"/>
  <circle cx="1085" cy="234" r="13" fill="#83a598"/>
  <circle cx="1044" cy="42" r="8" fill="#83a598"/>
  <circle cx="1120" cy="79" r="9" fill="#b8bb26"/>
  <circle cx="1071" cy="158" r="9" fill="#fe8019"/>
  <circle cx="1149" cy="213" r="8" fill="#fabd2f"/>
  <rect x="887" y="119" width="80" height="42" rx="12" fill="#3c3836" stroke="#665c54"/>
  <text x="927" y="147" text-anchor="middle" fill="#fbf1c7" font-family="Consolas, monospace" font-size="19" font-weight="700">{ go }</text>
</svg>
